<svg  xmlns="http://www.w3.org/2000/svg" width="24" height="24" viewBox="0 0 24 24">
  <g>
    <path d="M12,11.46A4.93,4.93,0,0,1,16.34,14a5,5,0,0,1-8.68,0A4.93,4.93,0,0,1,12,11.46M12,10a6.45,6.45,0,0,0-6,4,6.5,6.5,0,0,0,12,0,6.45,6.45,0,0,0-6-4Zm0,5.5A1.5,1.5,0,1,1,13.5,14,1.5,1.5,0,0,1,12,15.46Z"/>
    <path d="M19,3H14.82A3,3,0,0,0,9.18,3H5A2,2,0,0,0,3,5V21a2,2,0,0,0,2,2H19a2,2,0,0,0,2-2V5A2,2,0,0,0,19,3ZM12,3a1,1,0,1,1-1,1A1,1,0,0,1,12,3Zm7,17a1,1,0,0,1-1,1H6a1,1,0,0,1-1-1V6A1,1,0,0,1,6,5H7V6A2,2,0,0,0,9,8h6a2,2,0,0,0,2-2V5h1a1,1,0,0,1,1,1Z"/>
  </g>
</svg>
