<svg  xmlns="http://www.w3.org/2000/svg" width="24" height="24" viewBox="0 0 24 24">
  <g>
    <path d="M0,0H24V24H0Z" fill="none"/>
    <g>
      <g>
        <path d="M6,13h6a1,1,0,1,0,0-2H6a1,1,0,1,0,0,2Z"/>
        <path d="M6,9H16a1,1,0,1,0,0-2H6A1,1,0,1,0,6,9Z"/>
        <path d="M14.25,16H4.19l-.59.59L3,17.16V4H19v7h2V4a2,2,0,0,0-2-2H3A2,2,0,0,0,1,4V18H1v2.79a.5.5,0,0,0,.5.5.47.47,0,0,0,.35-.14L5,18h9.23Z"/>
      </g>
      <path d="M23,16H21V14a1,1,0,0,0-2,0v2H17a1,1,0,0,0,0,2h2v2a1,1,0,0,0,2,0V18h2a1,1,0,1,0,0-2Z"/>
    </g>
  </g>
</svg>
