<svg id="Icons" xmlns="http://www.w3.org/2000/svg" width="24" height="24" viewBox="0 0 24 24">
  <g>
    <rect x="2" y="13" width="2" height="2"/>
    <path d="M4,18V16H2A2,2,0,0,0,4,18Z"/>
    <rect x="11" y="1" width="2" height="2"/>
    <path d="M14,1V3h2A2,2,0,0,0,14,1Z"/>
    <rect x="2" y="10" width="2" height="2"/>
    <rect x="8" y="1" width="2" height="2"/>
    <rect x="5" y="1" width="2" height="2"/>
    <rect x="2" y="7" width="2" height="2"/>
    <path d="M2,3H4V1A2,2,0,0,0,2,3Z"/>
    <path d="M19,5H8A2,2,0,0,0,6,7V21a2,2,0,0,0,2,2H19a2,2,0,0,0,2-2V7A2,2,0,0,0,19,5Zm0,16H8V7H19Z"/>
    <rect x="2" y="4" width="2" height="2"/>
    <path d="M11,19h5a1,1,0,0,0,1-1V14a1,1,0,0,0-1-1H11a1,1,0,0,0-1,1v4A1,1,0,0,0,11,19Zm1-4h3v2H12Z"/>
    <path d="M11,11h5a1,1,0,0,0,0-2H11a1,1,0,0,0,0,2Z"/>
  </g>
</svg>
