<svg  xmlns="http://www.w3.org/2000/svg" width="24" height="24" viewBox="0 0 24 24">
  <g>
    <path d="M18,14a1,1,0,0,0-1,1v.58L14.75,13.3a1,1,0,0,0-1.41,1.41L15.59,17H15a1,1,0,0,0,0,2h3a1,1,0,0,0,1-1V15A1,1,0,0,0,18,14Z"/>
    <path d="M18,5H15a1,1,0,0,0,0,2h.6L13.33,9.23a1,1,0,0,0,1.41,1.42L17,8.39V9a1,1,0,0,0,2,0V6A1,1,0,0,0,18,5Z"/>
    <path d="M6,10A1,1,0,0,0,7,9V8.38l2.29,2.29a1,1,0,0,0,1.42,0,1,1,0,0,0,0-1.42L8.41,7H9A1,1,0,0,0,9,5H6A1,1,0,0,0,5,6V9A1,1,0,0,0,6,10Z"/>
    <path d="M9.29,13.25,7,15.55V15a1,1,0,0,0-2,0v3a1,1,0,0,0,1,1H9a1,1,0,0,0,0-2H8.41l2.3-2.29a1,1,0,0,0-1.42-1.42Z"/>
  </g>
</svg>
