<svg xmlns="http://www.w3.org/2000/svg" width="24" height="24" viewBox="0 0 24 24">
  <path d="M-.07,0h24V24h-24Z" fill="none"/>
  <g>
    <path d="M6.5,3A4.49,4.49,0,0,0,2,7.5v9a4.49,4.49,0,1,0,9,0v-9A4.49,4.49,0,0,0,6.5,3Zm0,2A2.5,2.5,0,0,1,9,7.5V11H4V7.5A2.5,2.5,0,0,1,6.5,5Zm0,14A2.5,2.5,0,0,1,4,16.5V13H9v3.5A2.5,2.5,0,0,1,6.5,19Z"/>
    <path d="M17.5,15a2,2,0,1,1-2,2,2,2,0,0,1,2-2m0-2a4,4,0,1,0,4,4,4,4,0,0,0-4-4Z"/>
    <path d="M17.5,5a2,2,0,1,1-2,2,2,2,0,0,1,2-2m0-2a4,4,0,1,0,4,4,4,4,0,0,0-4-4Z"/>
  </g>
</svg>
