<svg xmlns="http://www.w3.org/2000/svg" width="24" height="24" viewBox="0 0 24 24">
  <path d="M14.54,14.12,13,12.59V9.41a1,1,0,0,0-2,0V13a1,1,0,0,0,.29.71l1.83,1.82a1,1,0,0,0,.71.29,1,1,0,0,0,.71-.29A1,1,0,0,0,14.54,14.12Z"/>
  <g>
    <path d="M18.36,5.64A1,1,0,0,0,17,7.05,7,7,0,0,1,12,19h0V17.79a.39.39,0,0,0-.68-.27l-2.21,2.2a.4.4,0,0,0,0,.56l2.21,2.2a.39.39,0,0,0,.67-.27V21A9,9,0,0,0,18.36,5.64Z"/>
    <path d="M14.88,3.72l-2.21-2.2a.39.39,0,0,0-.67.27V3A9,9,0,0,0,5.64,18.36a1,1,0,0,0,.7.3A1,1,0,0,0,7.05,17,7,7,0,0,1,12,5V6.21a.39.39,0,0,0,.68.27l2.21-2.2A.4.4,0,0,0,14.88,3.72Z"/>
  </g>
</svg>
