<svg  xmlns="http://www.w3.org/2000/svg" width="24" height="24" viewBox="0 0 24 24">
  <g>
    <path d="M12,2.86A2.1,2.1,0,1,1,9.9,5,2.1,2.1,0,0,1,12,2.86M12,1a4,4,0,1,0,4,4A4,4,0,0,0,12,1Z"/>
    <path d="M12,13A2.11,2.11,0,0,1,10.17,12a9.93,9.93,0,0,1,3.66,0A2.11,2.11,0,0,1,12,13Zm0-3c-2.67,0-8,1.34-8,4v4.95a1,1,0,0,0,1,1H7.5a.5.5,0,0,0,.5-.5v-.9a.5.5,0,0,0-.5-.5H5.9V14c0-.35.95-1,2.31-1.42A3.83,3.83,0,0,0,11,14.85.37.37,0,0,0,11,15v1.17a3,3,0,1,0,2,0V15a.37.37,0,0,0,0-.11,3.83,3.83,0,0,0,2.8-2.31C17.15,13,18.1,13.61,18.1,14V18H16.5a.5.5,0,0,0-.5.5v.9a.5.5,0,0,0,.5.5H19a1,1,0,0,0,1-1V14C20,11.3,14.67,10,12,10Zm1,9a1,1,0,1,1-1-1A1,1,0,0,1,13,19Z"/>
  </g>
</svg>
