<svg data-name="Live Source" xmlns="http://www.w3.org/2000/svg" width="883.29" height="156.55" viewBox="0 0 883.29 156.55" preserveAspectRatio="xMidYMid meet">
  <path d="M645.93,130.82a3.25,3.25,0,0,1,.92,2.29,3.43,3.43,0,0,1-3.49,3.5,3.35,3.35,0,0,1-2.58-1.1l-3.86-4.14a31,31,0,0,1-16.65,4.6c-18.22,0-30.45-13.62-30.45-31.74s12.23-31.74,30.45-31.74,30.45,13.62,30.45,31.74c0,9-3,17-8.47,22.63ZM632,126,625.42,119a3.65,3.65,0,0,1-.92-2.3,3.43,3.43,0,0,1,3.49-3.5,3.2,3.2,0,0,1,2.58,1.11l6.62,7.17c3.59-4.41,5.61-10.39,5.61-17.2,0-14.35-8.83-24.93-22.53-24.93s-22.54,10.58-22.54,24.93,8.74,24.93,22.54,24.93A21.88,21.88,0,0,0,632,126Z" />
  <path d="M697,93.47v38.36a3.45,3.45,0,0,1-6.9,0V128.7A21.83,21.83,0,0,1,674.27,136c-9.29,0-14.17-4.51-14.17-14.17V93.47a3.45,3.45,0,0,1,6.9,0v26.21c0,7.82,4,10.12,9.94,10.12a17,17,0,0,0,13.15-6.71V93.47a3.45,3.45,0,0,1,6.9,0Z" />
  <path d="M743.18,104.32v27.51a3.45,3.45,0,0,1-6.9,0v-2c-3.5,4-8.65,6.17-14.72,6.17C714,136,706,130.91,706,121.25c0-9.94,8-14.63,15.55-14.63,6.07,0,11.13,1.93,14.72,6.07v-8c0-6-4.79-9.38-11.23-9.38a16.38,16.38,0,0,0-11.59,4.41,3.57,3.57,0,0,1-1.84.55,2.86,2.86,0,0,1-2.85-2.85,3,3,0,0,1,1.2-2.3,23,23,0,0,1,16-5.79C735.36,89.33,743.18,93.56,743.18,104.32Zm-6.9,21.16v-8.37c-2.67-3.68-7.36-5.52-12.24-5.52-6.44,0-10.95,4-10.95,9.75S717.6,131,724,131C728.92,131,733.61,129.16,736.28,125.48Z" />
  <path d="M793.78,76.54v55.29a3.45,3.45,0,0,1-6.9,0v-3.59a18.72,18.72,0,0,1-15,7.73c-11.59,0-19.78-8.83-19.78-23.28,0-14.16,8.1-23.36,19.78-23.36a18.55,18.55,0,0,1,15,7.91V76.54a3.45,3.45,0,0,1,6.9,0Zm-6.9,46.27V102.67a16.68,16.68,0,0,0-13.34-7.18c-8.93,0-14.26,7.36-14.26,17.2s5.33,17.11,14.26,17.11A16.52,16.52,0,0,0,786.88,122.81Z" />
  <path d="M827.45,93c0,1.65-1.38,3.12-3.77,3.4-4,.28-9.48,3.4-11.5,7v28.43a3.45,3.45,0,0,1-6.9,0V93.47a3.45,3.45,0,0,1,6.9,0v4.14c2.67-3.59,6.34-6.54,9.93-7.46a7.46,7.46,0,0,1,2.21-.46A3.1,3.1,0,0,1,827.45,93Z" />
  <path d="M832.14,76.81a4.65,4.65,0,1,1,9.29,0,4.65,4.65,0,0,1-9.29,0Zm1.2,55V93.47a3.45,3.45,0,0,1,6.9,0v38.36a3.45,3.45,0,0,1-6.9,0Z" />
  <path d="M848.61,128.24a3.06,3.06,0,0,1,3-3,3.29,3.29,0,0,1,1.84.56,19.93,19.93,0,0,0,12.61,4.6c6.8,0,10.48-3,10.48-7.36,0-4.88-5.42-6.44-11.4-7.92-7.55-1.74-16.1-3.77-16.1-13,0-6.9,6-12.78,16.56-12.78a23,23,0,0,1,14.72,4.87,3.17,3.17,0,0,1,1.19,2.3,3,3,0,0,1-2.94,2.94,2.86,2.86,0,0,1-1.66-.64,17.14,17.14,0,0,0-11.31-3.86c-6.07,0-9.85,2.76-9.85,6.71,0,4.33,5.06,5.71,10.86,7.09,7.73,1.74,16.65,4,16.65,13.8,0,7.45-6,13.43-17.48,13.43-6.16,0-11.5-1.66-15.91-5.25A2.92,2.92,0,0,1,848.61,128.24Z" />
  <g>
    <g>
      <path d="M30,134.86a30,30,0,0,1,0-60,4.13,4.13,0,0,1,0,8.26,21.75,21.75,0,1,0,21.74,21.74,21.53,21.53,0,0,0-4.59-13.37,4.13,4.13,0,1,1,6.5-5.09A29.68,29.68,0,0,1,60,104.86,30,30,0,0,1,30,134.86Z" />
      <path d="M26.52,108.75l-1.34,1.39A19.61,19.61,0,0,1,26.52,106l4-8.69L36.2,85.48l7.56-14.57,7.73-14.8L59.74,41s5.8-9.75,7.79-12.78A133.53,133.53,0,0,1,78.09,14.53C84.64,6.19,97.48,0,110.28,0a33.86,33.86,0,0,1,18,4.91s-10.65,1.66-18.24,5.79c0,0-9.44,4.29-18.7,18.74,0,0-2.1,3.33-3.86,5.79A11.66,11.66,0,0,1,79.8,39.7S70.45,41,69,42.16c0,0,6.85-.23,11.9,2.45,0,0-16.6,2.06-16.85,4.21,0,0,7.64-1.43,12,1.87-13.4,3.3-18.74,7-22.42,11.17a28.24,28.24,0,0,0-4.43,5.86A202.33,202.33,0,0,0,38.42,87.16c-4,8.25-7.61,15.44-8.15,16.63a28.15,28.15,0,0,1-1.39,2.54,6.66,6.66,0,0,1-1.09,1.14c-.52.49-.65.67-1.27,1.28" />
    </g>
  </g>
  <g data-name="NantHealth_Emblem_Wordmark_RGB">
    <g>
      <g>
        <path d="M126.45,133.3,91.86,85.37v46.09a3.82,3.82,0,0,1-7.64,0V78.1a5,5,0,0,1,5-5,4.9,4.9,0,0,1,4,2L127.37,122V76.91a3.85,3.85,0,0,1,3.77-3.78A3.81,3.81,0,0,1,135,76.91v53.63a4.74,4.74,0,0,1-8.55,2.76Z" />
        <path d="M181.46,104.32v27.51a3.45,3.45,0,0,1-6.9,0v-2c-3.49,4-8.64,6.17-14.72,6.17-7.54,0-15.54-5.06-15.54-14.72,0-9.94,8-14.63,15.54-14.63,6.08,0,11.14,1.93,14.72,6.07v-8c0-6-4.78-9.38-11.22-9.38a16.35,16.35,0,0,0-11.59,4.41,3.61,3.61,0,0,1-1.84.55,2.86,2.86,0,0,1-2.85-2.85,3,3,0,0,1,1.19-2.3,23.07,23.07,0,0,1,16-5.79C173.64,89.33,181.46,93.56,181.46,104.32Zm-6.9,21.16v-8.37c-2.66-3.68-7.36-5.52-12.23-5.52-6.44,0-11,4-11,9.75s4.51,9.66,11,9.66C167.2,131,171.9,129.16,174.56,125.48Z" />
        <path d="M229.85,103.68v28.15a3.45,3.45,0,0,1-6.9,0v-26C223,98,219,95.49,213,95.49a17.16,17.16,0,0,0-13.16,6.9v29.44a3.45,3.45,0,0,1-6.9,0V93.47a3.45,3.45,0,0,1,6.9,0V97a21.6,21.6,0,0,1,15.83-7.63C225,89.33,229.85,94,229.85,103.68Z" />
        <path d="M260.58,131.92a2.6,2.6,0,0,1-1.75,2.58,11.82,11.82,0,0,1-6.25,1.47c-6.53,0-9.84-3.77-9.84-10.4V96.5H238a3,3,0,0,1,0-6.07h4.7V81.32a3.45,3.45,0,0,1,6.9,0v9.11H256a3,3,0,1,1,0,6.07h-6.34v27.6c0,3.31,1.47,5.7,4.5,5.7,1.93,0,2.58-.82,3.5-.82A2.79,2.79,0,0,1,260.58,131.92Z" />
      </g>
    </g>
  </g>
  <g>
    <g>
      <path d="M315,131.46V106.71H279.16v24.75a3.82,3.82,0,0,1-7.63,0V76.91a3.79,3.79,0,0,1,3.77-3.78,3.87,3.87,0,0,1,3.86,3.78v23H315v-23a3.82,3.82,0,0,1,7.64,0v54.55a3.82,3.82,0,0,1-7.64,0Z" />
      <path d="M353.78,89.33c13.43,0,21.34,10.48,21.34,22.07,0,2.21-1.47,3.5-4.05,3.5H339.15c.55,8.37,6.44,15.36,16,15.36A19.15,19.15,0,0,0,367.11,126a3.11,3.11,0,0,1,1.57-.37,2.79,2.79,0,0,1,2.85,2.76,2.87,2.87,0,0,1-1.2,2.3A25.12,25.12,0,0,1,354.51,136c-13.15,0-22.63-9.48-22.63-23.37C331.88,99.72,341.08,89.33,353.78,89.33Zm-14.63,20.51h29.16C368.22,103.22,363.8,95,353.68,95,344.21,95,339.52,103,339.15,109.84Z" />
      <path d="M418.63,104.32v27.51a3.45,3.45,0,0,1-6.9,0v-2c-3.49,4-8.64,6.17-14.72,6.17-7.54,0-15.54-5.06-15.54-14.72,0-9.94,8-14.63,15.54-14.63,6.08,0,11.14,1.93,14.72,6.07v-8c0-6-4.78-9.38-11.22-9.38a16.35,16.35,0,0,0-11.59,4.41,3.57,3.57,0,0,1-1.84.55,2.86,2.86,0,0,1-2.85-2.85,3,3,0,0,1,1.19-2.3,23.07,23.07,0,0,1,16-5.79C410.81,89.33,418.63,93.56,418.63,104.32Zm-6.9,21.16v-8.37c-2.66-3.68-7.36-5.52-12.23-5.52-6.44,0-10.95,4-10.95,9.75S393.06,131,399.5,131C404.37,131,409.07,129.16,411.73,125.48Z" />
      <path d="M430.13,131.83V76.54a3.45,3.45,0,0,1,6.9,0v55.29a3.45,3.45,0,0,1-6.9,0Z" />
      <path d="M467.76,131.92A2.6,2.6,0,0,1,466,134.5a11.82,11.82,0,0,1-6.25,1.47c-6.53,0-9.85-3.77-9.85-10.4V96.5h-4.69a3,3,0,0,1,0-6.07h4.69V81.32a3.45,3.45,0,0,1,6.9,0v9.11h6.35a3,3,0,1,1,0,6.07h-6.35v27.6c0,3.31,1.48,5.7,4.51,5.7,1.93,0,2.58-.82,3.5-.82A2.8,2.8,0,0,1,467.76,131.92Z" />
      <path d="M503.36,131.83V105.61c0-7.82-4-10.12-10-10.12-5.34,0-10.49,3.31-13.16,6.9v29.44a3.45,3.45,0,0,1-6.9,0V76.54a3.45,3.45,0,0,1,6.9,0V96.87c3.13-3.68,9.2-7.54,15.92-7.54,9.29,0,14.16,4.5,14.16,14.16v28.34a3.45,3.45,0,0,1-6.9,0Z" />
      <path d="M524,73.15a7.8,7.8,0,1,1-7.8,7.8A7.76,7.76,0,0,1,524,73.15Zm0,1.06A6.76,6.76,0,1,0,530.69,81,6.73,6.73,0,0,0,524,74.21Zm.08,7.7h-1.88V85a.57.57,0,0,1-.55.56A.59.59,0,0,1,521,85v-7.8a.74.74,0,0,1,.74-.73h2.91a2.71,2.71,0,0,1,2.83,2.72,2.63,2.63,0,0,1-2.06,2.61l1.91,2.84a.46.46,0,0,1,.08.29.65.65,0,0,1-.63.66.59.59,0,0,1-.48-.29Zm.59-4.38h-2.47v3.31h2.47a1.66,1.66,0,0,0,0-3.31Z" />
    </g>
  </g>
  <rect x="553.37" y="33.2" width="4" height="123.35" />
</svg>
