<svg xmlns="http://www.w3.org/2000/svg" xmlns:xlink="http://www.w3.org/1999/xlink" width="24" height="24" viewBox="0 0 24 24">
  <defs>
    <symbol id="material_system_icon_border" data-name="material_system_icon_border" viewBox="0 0 48 48">
      <rect width="48" height="48" fill="none"/>
    </symbol>
  </defs>
  <g>
    <use width="48" height="48" transform="translate(0 24) rotate(-90) scale(0.5)" xlink:href="#material_system_icon_border"/>
    <path d="M16,9V19H8V9h8m0-2H8A2,2,0,0,0,6,9V19a2,2,0,0,0,2,2h8a2,2,0,0,0,2-2V9a2,2,0,0,0-2-2Z"/>
    <path d="M18,4H15.5l-.71-.71a1,1,0,0,0-.7-.29H9.91a1,1,0,0,0-.7.29L8.5,4H6A1,1,0,0,0,6,6H18a1,1,0,0,0,0-2Z"/>
  </g>
</svg>
