<svg  xmlns="http://www.w3.org/2000/svg" width="24" height="24" viewBox="0 0 24 24">
  <g>
    <rect x="7" y="11.96" width="2" height="2" rx="0.4"/>
    <rect x="11" y="11.96" width="2" height="2" rx="0.4"/>
    <rect x="15" y="11.96" width="2" height="2" rx="0.4"/>
    <rect x="7" y="15.96" width="2" height="2" rx="0.4"/>
    <rect x="11" y="15.96" width="2" height="2" rx="0.4"/>
    <rect x="15" y="15.96" width="2" height="2" rx="0.4"/>
    <path d="M19,4H18V3a1,1,0,0,0-1-1h0a1,1,0,0,0-1,1V4H8V3A1,1,0,0,0,7,2H7A1,1,0,0,0,6,3V4H5A2,2,0,0,0,3,6V20a2,2,0,0,0,2,2H19a2,2,0,0,0,2-2V6A2,2,0,0,0,19,4Zm0,16H5V10H19ZM19,8H5V6H19Z"/>
  </g>
</svg>
