<svg  xmlns="http://www.w3.org/2000/svg" width="24" height="24" viewBox="0 0 24 24">
  <g>
    <path d="M12,10.33a4,4,0,1,0-4-4A4,4,0,0,0,12,10.33Zm0-6.1a2.1,2.1,0,1,1-2.1,2.1A2.1,2.1,0,0,1,12,4.23Z"/>
    <path d="M12,16.21V18H9a1,1,0,0,0,0,2h3v1.79a.49.49,0,0,0,.85.35l2.79-2.79a.49.49,0,0,0,0-.7l-2.79-2.79A.5.5,0,0,0,12,16.21Z"/>
    <path d="M12,12c-2.67,0-8,1.34-8,4v3a1,1,0,0,0,1,1H6.1a1,1,0,0,0,0-2H6V16c0-.64,3.08-2.1,6-2.1s6,1.46,6,2.1v2h0a1,1,0,0,0,0,2h1a1,1,0,0,0,1-1V16C20,13.36,14.67,12,12,12Z"/>
  </g>
</svg>
